<svg width="748" height="828" viewBox="0 0 748 828" fill="none" xmlns="http://www.w3.org/2000/svg">
<path d="M159.05 0C145.74 0 134.95 10.8013 134.95 24.1259C134.95 37.4505 145.74 48.2518 159.05 48.2518H592.841C606.151 48.2518 616.94 37.4505 616.94 24.1259C616.94 10.8013 606.151 0 592.841 0H159.05Z" fill="white"/>
<path d="M748 448.741C745.076 408.659 735.771 371.344 720.086 336.797C701.449 294.336 675.422 257.343 642.003 225.818C608.585 193.65 569.062 168.881 523.434 151.511C478.448 134.14 428.642 125.455 374.017 125.455C320.034 125.455 270.229 134.14 224.6 151.511C178.972 168.881 139.128 193.65 105.067 225.818C71.6489 257.343 45.6208 294.336 26.9837 336.797C11.8215 371.344 2.82651 408.659 0 448.741H193.267C195.246 430.235 199.263 413.186 205.32 397.595C214.96 373.79 227.813 353.525 243.879 336.797C260.589 319.426 279.868 306.238 301.718 297.231C324.211 288.224 348.311 283.721 374.017 283.721C399.723 283.721 423.501 288.224 445.351 297.231C467.845 306.238 487.124 319.426 503.19 336.797C519.899 353.525 532.752 373.79 541.749 397.595C548.239 413.186 552.543 430.235 554.664 448.741H748Z" fill="white"/>
<path d="M224.6 801.944C270.229 819.315 320.034 828 374.017 828C428.642 828 478.448 819.315 523.434 801.944C569.062 784.573 608.585 760.126 642.003 728.601C675.422 697.077 701.449 660.084 720.086 617.622C735.524 583.105 744.782 546.112 747.858 506.643H554.38C552.17 524.118 547.961 540.523 541.749 555.86C532.752 579.664 519.899 600.252 503.19 617.622C487.124 634.35 467.845 647.217 445.351 656.224C423.501 665.231 399.723 669.734 374.017 669.734C348.311 669.734 324.211 665.231 301.718 656.224C279.868 647.217 260.589 634.35 243.879 617.622C227.813 600.252 214.96 579.664 205.32 555.86C199.523 540.523 195.594 524.118 193.533 506.643H0.141208C3.11717 545.995 12.065 582.666 26.9837 616.658C45.6208 659.119 71.6489 696.434 105.067 728.601C139.128 760.126 178.972 784.573 224.6 801.944Z" fill="white"/>
</svg>
